{
	"asset":{
		"generator":"Khronos glTF Blender I/O v5.0.21",
		"version":"2.0"
	},
	"scene":0,
	"scenes":[
		{
			"name":"Scene",
			"nodes":[
				0,
				1,
				2,
				3,
				4,
				5,
				6,
				7,
				8,
				9,
				10,
				11,
				12,
				13,
				14,
				15,
				16,
				17,
				18,
				19,
				20,
				21,
				22,
				23,
				24,
				25,
				26,
				27,
				28,
				29,
				30,
				31,
				32,
				33,
				34,
				35,
				36,
				37,
				38,
				39,
				40,
				41,
				42,
				43,
				44,
				45,
				46,
				47,
				48,
				49,
				50,
				51,
				52,
				53,
				54,
				55,
				56,
				57,
				58,
				59
			]
		}
	],
	"nodes":[
		{
			"mesh":0,
			"name":"Plane.052",
			"rotation":[
				-0.6109485626220703,
				-0.3501254916191101,
				0.3921552002429962,
				0.5919191837310791
			],
			"scale":[
				1.7844040393829346,
				1.5213109254837036,
				1.52139413356781
			],
			"translation":[
				-0.6135042309761047,
				5.682936191558838,
				0.7338462471961975
			]
		},
		{
			"mesh":1,
			"name":"Plane.051",
			"rotation":[
				0.6010898351669312,
				0.31789806485176086,
				0.6343487501144409,
				0.36774125695228577
			],
			"scale":[
				1.7913954257965088,
				2.4800143241882324,
				2.2367117404937744
			],
			"translation":[
				-0.40253767371177673,
				6.379256248474121,
				-0.6726101636886597
			]
		},
		{
			"mesh":2,
			"name":"Plane.050",
			"rotation":[
				0.32099711894989014,
				0.5902503132820129,
				0.6061871647834778,
				0.42556139826774597
			],
			"scale":[
				2.135307788848877,
				1.7930243015289307,
				1.8885098695755005
			],
			"translation":[
				-0.43933168053627014,
				6.593596458435059,
				-0.8718534708023071
			]
		},
		{
			"mesh":3,
			"name":"Plane.049",
			"rotation":[
				0.25069257616996765,
				0.606606662273407,
				0.1539551317691803,
				0.7385658025741577
			],
			"scale":[
				2.063274383544922,
				1.3635953664779663,
				1.3623642921447754
			],
			"translation":[
				-0.39272457361221313,
				6.396336555480957,
				-0.7414935231208801
			]
		},
		{
			"mesh":4,
			"name":"Plane.048",
			"rotation":[
				0.27659186720848083,
				0.6305945515632629,
				0.34238022565841675,
				0.6392365097999573
			],
			"scale":[
				2.015544891357422,
				1.7081314325332642,
				1.9661331176757812
			],
			"translation":[
				-0.4542679190635681,
				6.746816158294678,
				-0.9826920628547668
			]
		},
		{
			"mesh":5,
			"name":"Plane.047",
			"rotation":[
				-0.11988790333271027,
				-0.10934387892484665,
				0.3391835391521454,
				0.926620364189148
			],
			"scale":[
				2.1365747451782227,
				1.810701608657837,
				2.084195375442505
			],
			"translation":[
				-0.30356109142303467,
				5.942667007446289,
				-0.4481525123119354
			]
		},
		{
			"mesh":6,
			"name":"Plane.046",
			"rotation":[
				0.5979616045951843,
				0.4526047706604004,
				0.6489088535308838,
				0.12848420441150665
			],
			"scale":[
				1.911652684211731,
				2.5170111656188965,
				1.8074960708618164
			],
			"translation":[
				-0.32214781641960144,
				6.037325859069824,
				-0.4622645676136017
			]
		},
		{
			"mesh":7,
			"name":"Plane.045",
			"rotation":[
				-0.5409502983093262,
				-0.6395805478096008,
				0.37586066126823425,
				0.3962807059288025
			],
			"scale":[
				2.616053819656372,
				2.071042060852051,
				2.072584390640259
			],
			"translation":[
				-0.1798742413520813,
				4.990487098693848,
				-0.07827455550432205
			]
		},
		{
			"mesh":8,
			"name":"Plane.044",
			"rotation":[
				-0.6109485626220703,
				-0.3501254618167877,
				0.39215517044067383,
				0.5919191837310791
			],
			"scale":[
				1.9930208921432495,
				1.699169397354126,
				1.699262261390686
			],
			"translation":[
				-0.4326832592487335,
				5.01682186126709,
				0.355592280626297
			]
		},
		{
			"mesh":9,
			"name":"Plane.043",
			"rotation":[
				-0.11637536436319351,
				-0.40027788281440735,
				0.3809354603290558,
				0.8253015279769897
			],
			"scale":[
				0.6725031733512878,
				0.6725033521652222,
				0.6725030541419983
			],
			"translation":[
				1.840401530265808,
				4.371037006378174,
				1.7861071825027466
			]
		},
		{
			"mesh":10,
			"name":"Plane.042",
			"rotation":[
				0.16262297332286835,
				-0.19881656765937805,
				0.7470099329948425,
				0.6131899952888489
			],
			"scale":[
				0.9991062879562378,
				0.8732829093933105,
				0.897706151008606
			],
			"translation":[
				1.8423993587493896,
				5.50893497467041,
				0.7360538840293884
			]
		},
		{
			"mesh":11,
			"name":"Plane.041",
			"rotation":[
				-0.11493751406669617,
				-0.023689549416303635,
				0.6080290675163269,
				0.7851935029029846
			],
			"scale":[
				0.8017675280570984,
				0.8017674088478088,
				0.8017674684524536
			],
			"translation":[
				1.9548206329345703,
				5.744346618652344,
				0.747369110584259
			]
		},
		{
			"mesh":12,
			"name":"Plane.040",
			"rotation":[
				-0.42869794368743896,
				-0.7347836494445801,
				0.27629944682121277,
				0.4471797049045563
			],
			"scale":[
				2.284217357635498,
				2.8399739265441895,
				1.7405478954315186
			],
			"translation":[
				-0.39040258526802063,
				4.822953224182129,
				0.3409384489059448
			]
		},
		{
			"mesh":13,
			"name":"Plane.039",
			"rotation":[
				-0.3490917980670929,
				-0.6886745095252991,
				0.3303893804550171,
				0.5428675413131714
			],
			"scale":[
				2.063274621963501,
				1.3635956048965454,
				1.3623641729354858
			],
			"translation":[
				-0.6265381574630737,
				5.840548992156982,
				0.8418906331062317
			]
		},
		{
			"mesh":14,
			"name":"Plane.038",
			"rotation":[
				0.2242547869682312,
				0.7228666543960571,
				0.2853401303291321,
				0.5880089998245239
			],
			"scale":[
				2.5839622020721436,
				2.189852714538574,
				2.5206148624420166
			],
			"translation":[
				-0.2285226583480835,
				5.405610084533691,
				-0.24462492763996124
			]
		},
		{
			"mesh":15,
			"name":"Plane.037",
			"rotation":[
				0.2916806638240814,
				0.37081632018089294,
				0.46641960740089417,
				0.7482448816299438
			],
			"scale":[
				2.649144172668457,
				3.169835090637207,
				1.9820384979248047
			],
			"translation":[
				-0.05597340315580368,
				4.731324195861816,
				-0.10949905961751938
			]
		},
		{
			"mesh":16,
			"name":"Plane.036",
			"rotation":[
				-0.17930081486701965,
				-0.24951912462711334,
				0.044236406683921814,
				0.9505969285964966
			],
			"scale":[
				0.9362477660179138,
				0.9362474679946899,
				0.9362476468086243
			],
			"translation":[
				-0.0030830444302409887,
				4.545769214630127,
				-0.0032179795671254396
			]
		},
		{
			"mesh":17,
			"name":"Plane.035",
			"rotation":[
				-0.1872951090335846,
				-0.9402142763137817,
				0.10271623730659485,
				0.26526787877082825
			],
			"scale":[
				2.3051044940948486,
				1.9652384519577026,
				1.9653469324111938
			],
			"translation":[
				-0.1928880661725998,
				4.560976028442383,
				0.11811962723731995
			]
		},
		{
			"mesh":18,
			"name":"Plane.034",
			"rotation":[
				0.09633845835924149,
				-0.5522745847702026,
				-0.03128767013549805,
				0.8274857997894287
			],
			"scale":[
				0.8756413459777832,
				0.8756412267684937,
				0.8756411075592041
			],
			"translation":[
				-0.09978760778903961,
				4.492751598358154,
				0.07538001239299774
			]
		},
		{
			"mesh":19,
			"name":"Plane.033",
			"rotation":[
				0.6410831212997437,
				0.7631305456161499,
				0.0427008680999279,
				0.0694325864315033
			],
			"scale":[
				1.280208945274353,
				0.8460763096809387,
				0.845312237739563
			],
			"translation":[
				-1.3352560997009277,
				5.394914627075195,
				-1.2822264432907104
			]
		},
		{
			"mesh":20,
			"name":"Plane.032",
			"rotation":[
				0.6767969131469727,
				0.6891877055168152,
				0.029012048617005348,
				0.2571471929550171
			],
			"scale":[
				1.9983834028244019,
				1.7037409543991089,
				1.7038346529006958
			],
			"translation":[
				-0.8311362266540527,
				4.584429740905762,
				-1.073438048362732
			]
		},
		{
			"mesh":21,
			"name":"Plane.031",
			"rotation":[
				0.3369555175304413,
				0.9143027067184448,
				0.0867396667599678,
				0.2073349803686142
			],
			"scale":[
				1.7658846378326416,
				1.7658848762512207,
				1.7658846378326416
			],
			"translation":[
				-0.808707058429718,
				4.395630359649658,
				-1.0246273279190063
			]
		},
		{
			"mesh":22,
			"name":"Plane.030",
			"rotation":[
				-0.029878171160817146,
				0.16568072140216827,
				0.254048228263855,
				0.9524268507957458
			],
			"scale":[
				1.2889302968978882,
				1.2889302968978882,
				1.2889302968978882
			],
			"translation":[
				-0.27649757266044617,
				3.4310011863708496,
				-0.5193052291870117
			]
		},
		{
			"mesh":23,
			"name":"Plane.029",
			"rotation":[
				0.19302722811698914,
				0.9683432579040527,
				0.15491430461406708,
				0.03245636448264122
			],
			"scale":[
				2.0792651176452637,
				1.7726974487304688,
				1.7727948427200317
			],
			"translation":[
				-0.6658445596694946,
				4.135418891906738,
				-0.892939567565918
			]
		},
		{
			"mesh":24,
			"name":"Plane.028",
			"rotation":[
				-0.32715925574302673,
				-0.08454899489879608,
				0.5568671822547913,
				0.7587604522705078
			],
			"scale":[
				0.9740914702415466,
				0.9740917086601257,
				0.9740913510322571
			],
			"translation":[
				-0.3108001947402954,
				3.4902029037475586,
				-0.5498904585838318
			]
		},
		{
			"mesh":25,
			"name":"Plane.027",
			"rotation":[
				0.43929705023765564,
				0.7843880653381348,
				0.26202264428138733,
				0.35085269808769226
			],
			"scale":[
				1.9915294647216797,
				1.6978968381881714,
				1.6979905366897583
			],
			"translation":[
				-0.06684108823537827,
				4.258910179138184,
				-0.09917004406452179
			]
		},
		{
			"mesh":26,
			"name":"Plane.026",
			"rotation":[
				0.07807035744190216,
				0.866409182548523,
				0.03420254960656166,
				0.4920065402984619
			],
			"scale":[
				2.587822437286377,
				2.206272602081299,
				2.2063944339752197
			],
			"translation":[
				-0.5072106122970581,
				3.7161831855773926,
				-0.770221471786499
			]
		},
		{
			"mesh":27,
			"name":"Plane.025",
			"rotation":[
				-0.05292462185025215,
				-0.12617145478725433,
				0.9606590867042542,
				0.24169005453586578
			],
			"scale":[
				2.3207669258117676,
				1.5337694883346558,
				1.5323848724365234
			],
			"translation":[
				-0.9137506484985352,
				4.607787132263184,
				-1.0898302793502808
			]
		},
		{
			"mesh":28,
			"name":"Plane.024",
			"rotation":[
				0.6416609883308411,
				0.6527288556098938,
				0.1227935329079628,
				0.383585661649704
			],
			"scale":[
				2.9873602390289307,
				1.9743138551712036,
				1.9725316762924194
			],
			"translation":[
				-0.606049656867981,
				4.112949371337891,
				-0.8684061169624329
			]
		},
		{
			"mesh":29,
			"name":"Plane.023",
			"rotation":[
				0.6207051277160645,
				0.5784472227096558,
				0.3131476044654846,
				0.4266880750656128
			],
			"scale":[
				2.404853582382202,
				2.0502803325653076,
				2.050393581390381
			],
			"translation":[
				-0.3525381088256836,
				3.533006191253662,
				-0.6077660322189331
			]
		},
		{
			"mesh":30,
			"name":"Plane.022",
			"rotation":[
				0.25463443994522095,
				0.9318903684616089,
				-0.08962011337280273,
				0.24230119585990906
			],
			"scale":[
				1.3381835222244263,
				1.3381836414337158,
				1.3381835222244263
			],
			"translation":[
				-0.34745103120803833,
				3.3235089778900146,
				-0.4957118034362793
			]
		},
		{
			"mesh":31,
			"name":"Plane.021",
			"rotation":[
				-0.01393924467265606,
				0.8434176445007324,
				0.018697991967201233,
				0.5367520451545715
			],
			"scale":[
				1.3402255773544312,
				1.3402254581451416,
				1.3402254581451416
			],
			"translation":[
				-0.2951878607273102,
				3.250821113586426,
				-0.45776087045669556
			]
		},
		{
			"mesh":32,
			"name":"Plane.020",
			"rotation":[
				-0.2429794818162918,
				-0.19864553213119507,
				0.4060041308403015,
				0.858289897441864
			],
			"scale":[
				0.8967364430427551,
				0.8967361450195312,
				0.8967363238334656
			],
			"translation":[
				1.561246395111084,
				4.186554908752441,
				1.5288571119308472
			]
		},
		{
			"mesh":33,
			"name":"Plane.019",
			"rotation":[
				0.06296177953481674,
				-0.3603321611881256,
				0.3030761480331421,
				0.8799667358398438
			],
			"scale":[
				1.4367804527282715,
				1.436780333518982,
				1.4367804527282715
			],
			"translation":[
				1.4821914434432983,
				4.577573776245117,
				0.6689612865447998
			]
		},
		{
			"mesh":34,
			"name":"Plane.018",
			"rotation":[
				-0.20234207808971405,
				-0.5042026042938232,
				0.15633906424045563,
				0.8248609304428101
			],
			"scale":[
				1.3216838836669922,
				1.217315912246704,
				1.1753003597259521
			],
			"translation":[
				1.255652904510498,
				3.877668857574463,
				1.1970888376235962
			]
		},
		{
			"mesh":35,
			"name":"Plane.017",
			"rotation":[
				0.12956108152866364,
				-0.2974938154220581,
				0.33238911628723145,
				0.8855669498443604
			],
			"scale":[
				1.3381836414337158,
				1.3381837606430054,
				1.3381837606430054
			],
			"translation":[
				1.1283576488494873,
				3.709238290786743,
				0.983071506023407
			]
		},
		{
			"mesh":36,
			"name":"Plane.016",
			"rotation":[
				-0.17646074295043945,
				-0.4002750813961029,
				0.5627768039703369,
				0.7013728022575378
			],
			"scale":[
				1.288230538368225,
				1.6035079956054688,
				1.1863924264907837
			],
			"translation":[
				0.9684797525405884,
				3.6351919174194336,
				0.7556038498878479
			]
		},
		{
			"mesh":37,
			"name":"Plane.015",
			"rotation":[
				-0.15050020813941956,
				-0.3659868538379669,
				0.5343866944313049,
				0.746882975101471
			],
			"scale":[
				0.9993624091148376,
				1.2439430952072144,
				0.9203600287437439
			],
			"translation":[
				1.290041446685791,
				3.9877233505249023,
				1.2432990074157715
			]
		},
		{
			"mesh":38,
			"name":"Plane.014",
			"rotation":[
				-0.9082403182983398,
				0.06367175281047821,
				-0.4079236686229706,
				0.06814514100551605
			],
			"scale":[
				0.9993625283241272,
				1.2439430952072144,
				0.9203600287437439
			],
			"translation":[
				1.4729136228561401,
				4.081728458404541,
				1.4246609210968018
			]
		},
		{
			"mesh":39,
			"name":"Plane.013",
			"rotation":[
				-0.9649451971054077,
				-0.1451980620622635,
				0.020212559029459953,
				0.21769201755523682
			],
			"scale":[
				1.431412696838379,
				1.7817319631576538,
				1.3182555437088013
			],
			"translation":[
				1.6200143098831177,
				4.9000020027160645,
				0.6772042512893677
			]
		},
		{
			"mesh":40,
			"name":"Plane.012",
			"rotation":[
				0.16132202744483948,
				0.006959984544664621,
				0.4336658716201782,
				0.8864878416061401
			],
			"scale":[
				1.2788132429122925,
				1.2788128852844238,
				1.2788130044937134
			],
			"translation":[
				1.7713649272918701,
				5.268469333648682,
				0.705696702003479
			]
		},
		{
			"mesh":41,
			"name":"Plane.011",
			"rotation":[
				-0.034065451472997665,
				-0.09324739873409271,
				0.7803940176963806,
				0.6173570156097412
			],
			"scale":[
				1.4192992448806763,
				1.2100368738174438,
				1.2101038694381714
			],
			"translation":[
				1.6312874555587769,
				5.04803466796875,
				0.6946849822998047
			]
		},
		{
			"mesh":42,
			"name":"Plane.010",
			"rotation":[
				-0.17734628915786743,
				-0.09164638817310333,
				0.7927989959716797,
				0.5758636593818665
			],
			"scale":[
				2.023183822631836,
				1.7248841524124146,
				1.7249798774719238
			],
			"translation":[
				1.0854439735412598,
				4.059089183807373,
				0.4724048674106598
			]
		},
		{
			"mesh":43,
			"name":"Plane.009",
			"rotation":[
				0.656609833240509,
				0.6177189350128174,
				0.42928582429885864,
				0.05477867275476456
			],
			"scale":[
				1.355224609375,
				1.355224370956421,
				1.3552244901657104
			],
			"translation":[
				1.5345039367675781,
				4.85369873046875,
				0.7010484337806702
			]
		},
		{
			"mesh":44,
			"name":"Plane.008",
			"rotation":[
				0.7262415289878845,
				0.6434939503669739,
				0.17481623589992523,
				0.16711702942848206
			],
			"scale":[
				1.4367804527282715,
				1.436780333518982,
				1.4367804527282715
			],
			"translation":[
				1.3913549184799194,
				4.564763069152832,
				0.631280779838562
			]
		},
		{
			"mesh":45,
			"name":"Plane.007",
			"rotation":[
				-0.07513302564620972,
				0.3667706251144409,
				0.32389822602272034,
				0.8688638210296631
			],
			"scale":[
				2.2718920707702637,
				1.9369230270385742,
				1.9370297193527222
			],
			"translation":[
				1.0982367992401123,
				3.9399919509887695,
				0.36951878666877747
			]
		},
		{
			"mesh":46,
			"name":"Plane.006",
			"rotation":[
				0.0507277213037014,
				0.06567129492759705,
				0.3345668911933899,
				0.9387114644050598
			],
			"scale":[
				2.4048538208007812,
				2.0502805709838867,
				2.050393581390381
			],
			"translation":[
				1.3201550245285034,
				4.284757614135742,
				0.5355302691459656
			]
		},
		{
			"mesh":47,
			"name":"Plane.005",
			"rotation":[
				0.17763179540634155,
				-0.60260409116745,
				-0.11876844614744186,
				0.7689014077186584
			],
			"scale":[
				1.3381836414337158,
				1.3381837606430054,
				1.3381836414337158
			],
			"translation":[
				1.0001821517944336,
				3.577328681945801,
				0.7796586751937866
			]
		},
		{
			"mesh":48,
			"name":"Plane.004",
			"rotation":[
				-0.29594191908836365,
				-0.07715354859828949,
				0.7228344678878784,
				0.6196579933166504
			],
			"scale":[
				2.4048538208007812,
				2.0502803325653076,
				2.050393581390381
			],
			"translation":[
				0.40528690814971924,
				2.5425662994384766,
				0.02034006640315056
			]
		},
		{
			"mesh":49,
			"name":"Plane.003",
			"rotation":[
				0.1722964346408844,
				-0.20402145385742188,
				-0.0889679417014122,
				0.9595696330070496
			],
			"scale":[
				1.4367804527282715,
				1.436780333518982,
				1.4367802143096924
			],
			"translation":[
				1.0340688228607178,
				3.767521619796753,
				0.35231199860572815
			]
		},
		{
			"mesh":50,
			"name":"Plane.002",
			"rotation":[
				-0.02286689728498459,
				0.12232604622840881,
				-0.08769533038139343,
				0.9883435368537903
			],
			"scale":[
				1.2268034219741821,
				1.2268033027648926,
				1.2268034219741821
			],
			"translation":[
				0.8252253532409668,
				3.23519229888916,
				0.2063818871974945
			]
		},
		{
			"mesh":51,
			"name":"Plane.001",
			"rotation":[
				-0.01857251115143299,
				-0.08498810231685638,
				0.7672127485275269,
				0.6354659199714661
			],
			"scale":[
				2.4048538208007812,
				2.0502803325653076,
				2.050393581390381
			],
			"translation":[
				0.6894181370735168,
				3.1624279022216797,
				0.1927184909582138
			]
		},
		{
			"mesh":52,
			"name":"Plane",
			"rotation":[
				0.07737033814191818,
				-0.5652574896812439,
				0.0571911484003067,
				0.8192844390869141
			],
			"scale":[
				1.2268035411834717,
				1.2268034219741821,
				1.2268036603927612
			],
			"translation":[
				0.6685250401496887,
				3.041769504547119,
				0.22778435051441193
			]
		},
		{
			"mesh":53,
			"name":"Circle.004",
			"rotation":[
				0.36032843589782715,
				-0.7166250944137573,
				-0.2682625353336334,
				0.533523440361023
			],
			"scale":[
				0.5287916660308838,
				0.528791606426239,
				0.528791606426239
			],
			"translation":[
				-0.4147358536720276,
				5.213207721710205,
				0.48045405745506287
			]
		},
		{
			"mesh":54,
			"name":"Circle.003",
			"rotation":[
				0.19760450720787048,
				-0.43312016129493713,
				-0.6262803077697754,
				0.6173591613769531
			],
			"scale":[
				0.5437490344047546,
				0.5437490344047546,
				0.5437490344047546
			],
			"translation":[
				1.2800294160842896,
				3.868826150894165,
				1.0780197381973267
			]
		},
		{
			"mesh":55,
			"name":"Circle.002",
			"rotation":[
				-0.4361981153488159,
				0.867515504360199,
				-0.10738977044820786,
				0.21357782185077667
			],
			"scale":[
				0.800000011920929,
				0.800000011920929,
				0.800000011920929
			],
			"translation":[
				-0.6534070372581482,
				4.105391979217529,
				-0.7648342251777649
			]
		},
		{
			"mesh":56,
			"name":"Circle.001",
			"rotation":[
				0.03229692950844765,
				0.006924230605363846,
				-0.36604735255241394,
				0.9300099611282349
			],
			"scale":[
				0.8000000715255737,
				0.800000011920929,
				0.800000011920929
			],
			"translation":[
				0.027527472004294395,
				1.9470094442367554,
				0.00046111876145005226
			]
		},
		{
			"mesh":57,
			"name":"Circle",
			"scale":[
				0.7668174505233765,
				0.7668174505233765,
				0.7668174505233765
			]
		},
		{
			"mesh":58,
			"name":"Circle.005"
		},
		{
			"mesh":59,
			"name":"Circle.009"
		}
	],
	"materials":[
		{
			"doubleSided":true,
			"name":"Material",
			"pbrMetallicRoughness":{
				"baseColorTexture":{
					"index":0
				},
				"metallicFactor":0,
				"roughnessFactor":0.5
			}
		}
	],
	"meshes":[
		{
			"name":"Plane.152",
			"primitives":[
				{
					"attributes":{
						"POSITION":0,
						"NORMAL":1,
						"TEXCOORD_0":2
					},
					"indices":3,
					"material":0
				}
			]
		},
		{
			"name":"Plane.151",
			"primitives":[
				{
					"attributes":{
						"POSITION":4,
						"NORMAL":5,
						"TEXCOORD_0":6
					},
					"indices":3,
					"material":0
				}
			]
		},
		{
			"name":"Plane.150",
			"primitives":[
				{
					"attributes":{
						"POSITION":7,
						"NORMAL":8,
						"TEXCOORD_0":9
					},
					"indices":3,
					"material":0
				}
			]
		},
		{
			"name":"Plane.049",
			"primitives":[
				{
					"attributes":{
						"POSITION":10,
						"NORMAL":11,
						"TEXCOORD_0":12
					},
					"indices":3,
					"material":0
				}
			]
		},
		{
			"name":"Plane.048",
			"primitives":[
				{
					"attributes":{
						"POSITION":13,
						"NORMAL":14,
						"TEXCOORD_0":15
					},
					"indices":3,
					"material":0
				}
			]
		},
		{
			"name":"Plane.047",
			"primitives":[
				{
					"attributes":{
						"POSITION":16,
						"NORMAL":17,
						"TEXCOORD_0":18
					},
					"indices":3,
					"material":0
				}
			]
		},
		{
			"name":"Plane.046",
			"primitives":[
				{
					"attributes":{
						"POSITION":19,
						"NORMAL":20,
						"TEXCOORD_0":21
					},
					"indices":3,
					"material":0
				}
			]
		},
		{
			"name":"Plane.045",
			"primitives":[
				{
					"attributes":{
						"POSITION":22,
						"NORMAL":23,
						"TEXCOORD_0":24
					},
					"indices":3,
					"material":0
				}
			]
		},
		{
			"name":"Plane.044",
			"primitives":[
				{
					"attributes":{
						"POSITION":25,
						"NORMAL":26,
						"TEXCOORD_0":27
					},
					"indices":3,
					"material":0
				}
			]
		},
		{
			"name":"Plane.043",
			"primitives":[
				{
					"attributes":{
						"POSITION":28,
						"NORMAL":29,
						"TEXCOORD_0":30
					},
					"indices":3,
					"material":0
				}
			]
		},
		{
			"name":"Plane.042",
			"primitives":[
				{
					"attributes":{
						"POSITION":31,
						"NORMAL":32,
						"TEXCOORD_0":33
					},
					"indices":3,
					"material":0
				}
			]
		},
		{
			"name":"Plane.041",
			"primitives":[
				{
					"attributes":{
						"POSITION":34,
						"NORMAL":35,
						"TEXCOORD_0":36
					},
					"indices":3,
					"material":0
				}
			]
		},
		{
			"name":"Plane.040",
			"primitives":[
				{
					"attributes":{
						"POSITION":37,
						"NORMAL":38,
						"TEXCOORD_0":39
					},
					"indices":3,
					"material":0
				}
			]
		},
		{
			"name":"Plane.039",
			"primitives":[
				{
					"attributes":{
						"POSITION":40,
						"NORMAL":41,
						"TEXCOORD_0":42
					},
					"indices":3,
					"material":0
				}
			]
		},
		{
			"name":"Plane.038",
			"primitives":[
				{
					"attributes":{
						"POSITION":43,
						"NORMAL":44,
						"TEXCOORD_0":45
					},
					"indices":3,
					"material":0
				}
			]
		},
		{
			"name":"Plane.037",
			"primitives":[
				{
					"attributes":{
						"POSITION":46,
						"NORMAL":47,
						"TEXCOORD_0":48
					},
					"indices":3,
					"material":0
				}
			]
		},
		{
			"name":"Plane.036",
			"primitives":[
				{
					"attributes":{
						"POSITION":49,
						"NORMAL":50,
						"TEXCOORD_0":51
					},
					"indices":3,
					"material":0
				}
			]
		},
		{
			"name":"Plane.035",
			"primitives":[
				{
					"attributes":{
						"POSITION":52,
						"NORMAL":53,
						"TEXCOORD_0":54
					},
					"indices":3,
					"material":0
				}
			]
		},
		{
			"name":"Plane.034",
			"primitives":[
				{
					"attributes":{
						"POSITION":55,
						"NORMAL":56,
						"TEXCOORD_0":57
					},
					"indices":3,
					"material":0
				}
			]
		},
		{
			"name":"Plane.033",
			"primitives":[
				{
					"attributes":{
						"POSITION":58,
						"NORMAL":59,
						"TEXCOORD_0":60
					},
					"indices":3,
					"material":0
				}
			]
		},
		{
			"name":"Plane.032",
			"primitives":[
				{
					"attributes":{
						"POSITION":61,
						"NORMAL":62,
						"TEXCOORD_0":63
					},
					"indices":3,
					"material":0
				}
			]
		},
		{
			"name":"Plane.031",
			"primitives":[
				{
					"attributes":{
						"POSITION":64,
						"NORMAL":65,
						"TEXCOORD_0":66
					},
					"indices":3,
					"material":0
				}
			]
		},
		{
			"name":"Plane.030",
			"primitives":[
				{
					"attributes":{
						"POSITION":67,
						"NORMAL":68,
						"TEXCOORD_0":69
					},
					"indices":3,
					"material":0
				}
			]
		},
		{
			"name":"Plane.029",
			"primitives":[
				{
					"attributes":{
						"POSITION":70,
						"NORMAL":71,
						"TEXCOORD_0":72
					},
					"indices":3,
					"material":0
				}
			]
		},
		{
			"name":"Plane.028",
			"primitives":[
				{
					"attributes":{
						"POSITION":73,
						"NORMAL":74,
						"TEXCOORD_0":75
					},
					"indices":3,
					"material":0
				}
			]
		},
		{
			"name":"Plane.027",
			"primitives":[
				{
					"attributes":{
						"POSITION":76,
						"NORMAL":77,
						"TEXCOORD_0":78
					},
					"indices":3,
					"material":0
				}
			]
		},
		{
			"name":"Plane.026",
			"primitives":[
				{
					"attributes":{
						"POSITION":79,
						"NORMAL":80,
						"TEXCOORD_0":81
					},
					"indices":3,
					"material":0
				}
			]
		},
		{
			"name":"Plane.025",
			"primitives":[
				{
					"attributes":{
						"POSITION":82,
						"NORMAL":83,
						"TEXCOORD_0":84
					},
					"indices":3,
					"material":0
				}
			]
		},
		{
			"name":"Plane.024",
			"primitives":[
				{
					"attributes":{
						"POSITION":85,
						"NORMAL":86,
						"TEXCOORD_0":87
					},
					"indices":3,
					"material":0
				}
			]
		},
		{
			"name":"Plane.023",
			"primitives":[
				{
					"attributes":{
						"POSITION":88,
						"NORMAL":89,
						"TEXCOORD_0":90
					},
					"indices":3,
					"material":0
				}
			]
		},
		{
			"name":"Plane.022",
			"primitives":[
				{
					"attributes":{
						"POSITION":91,
						"NORMAL":92,
						"TEXCOORD_0":93
					},
					"indices":3,
					"material":0
				}
			]
		},
		{
			"name":"Plane.021",
			"primitives":[
				{
					"attributes":{
						"POSITION":94,
						"NORMAL":95,
						"TEXCOORD_0":96
					},
					"indices":3,
					"material":0
				}
			]
		},
		{
			"name":"Plane.020",
			"primitives":[
				{
					"attributes":{
						"POSITION":97,
						"NORMAL":98,
						"TEXCOORD_0":99
					},
					"indices":3,
					"material":0
				}
			]
		},
		{
			"name":"Plane.019",
			"primitives":[
				{
					"attributes":{
						"POSITION":100,
						"NORMAL":101,
						"TEXCOORD_0":102
					},
					"indices":3,
					"material":0
				}
			]
		},
		{
			"name":"Plane.018",
			"primitives":[
				{
					"attributes":{
						"POSITION":103,
						"NORMAL":104,
						"TEXCOORD_0":105
					},
					"indices":3,
					"material":0
				}
			]
		},
		{
			"name":"Plane.017",
			"primitives":[
				{
					"attributes":{
						"POSITION":106,
						"NORMAL":107,
						"TEXCOORD_0":108
					},
					"indices":3,
					"material":0
				}
			]
		},
		{
			"name":"Plane.016",
			"primitives":[
				{
					"attributes":{
						"POSITION":109,
						"NORMAL":110,
						"TEXCOORD_0":111
					},
					"indices":3,
					"material":0
				}
			]
		},
		{
			"name":"Plane.015",
			"primitives":[
				{
					"attributes":{
						"POSITION":112,
						"NORMAL":113,
						"TEXCOORD_0":114
					},
					"indices":3,
					"material":0
				}
			]
		},
		{
			"name":"Plane.014",
			"primitives":[
				{
					"attributes":{
						"POSITION":115,
						"NORMAL":116,
						"TEXCOORD_0":117
					},
					"indices":3,
					"material":0
				}
			]
		},
		{
			"name":"Plane.013",
			"primitives":[
				{
					"attributes":{
						"POSITION":118,
						"NORMAL":119,
						"TEXCOORD_0":120
					},
					"indices":3,
					"material":0
				}
			]
		},
		{
			"name":"Plane.012",
			"primitives":[
				{
					"attributes":{
						"POSITION":121,
						"NORMAL":122,
						"TEXCOORD_0":123
					},
					"indices":3,
					"material":0
				}
			]
		},
		{
			"name":"Plane.011",
			"primitives":[
				{
					"attributes":{
						"POSITION":124,
						"NORMAL":125,
						"TEXCOORD_0":126
					},
					"indices":3,
					"material":0
				}
			]
		},
		{
			"name":"Plane.010",
			"primitives":[
				{
					"attributes":{
						"POSITION":127,
						"NORMAL":128,
						"TEXCOORD_0":129
					},
					"indices":3,
					"material":0
				}
			]
		},
		{
			"name":"Plane.009",
			"primitives":[
				{
					"attributes":{
						"POSITION":130,
						"NORMAL":131,
						"TEXCOORD_0":132
					},
					"indices":3,
					"material":0
				}
			]
		},
		{
			"name":"Plane.008",
			"primitives":[
				{
					"attributes":{
						"POSITION":133,
						"NORMAL":134,
						"TEXCOORD_0":135
					},
					"indices":3,
					"material":0
				}
			]
		},
		{
			"name":"Plane.007",
			"primitives":[
				{
					"attributes":{
						"POSITION":136,
						"NORMAL":137,
						"TEXCOORD_0":138
					},
					"indices":3,
					"material":0
				}
			]
		},
		{
			"name":"Plane.006",
			"primitives":[
				{
					"attributes":{
						"POSITION":139,
						"NORMAL":140,
						"TEXCOORD_0":141
					},
					"indices":3,
					"material":0
				}
			]
		},
		{
			"name":"Plane.005",
			"primitives":[
				{
					"attributes":{
						"POSITION":142,
						"NORMAL":143,
						"TEXCOORD_0":144
					},
					"indices":3,
					"material":0
				}
			]
		},
		{
			"name":"Plane.004",
			"primitives":[
				{
					"attributes":{
						"POSITION":145,
						"NORMAL":146,
						"TEXCOORD_0":147
					},
					"indices":3,
					"material":0
				}
			]
		},
		{
			"name":"Plane.003",
			"primitives":[
				{
					"attributes":{
						"POSITION":148,
						"NORMAL":149,
						"TEXCOORD_0":150
					},
					"indices":3,
					"material":0
				}
			]
		},
		{
			"name":"Plane.002",
			"primitives":[
				{
					"attributes":{
						"POSITION":151,
						"NORMAL":152,
						"TEXCOORD_0":153
					},
					"indices":3,
					"material":0
				}
			]
		},
		{
			"name":"Plane.001",
			"primitives":[
				{
					"attributes":{
						"POSITION":154,
						"NORMAL":155,
						"TEXCOORD_0":156
					},
					"indices":3,
					"material":0
				}
			]
		},
		{
			"name":"Plane",
			"primitives":[
				{
					"attributes":{
						"POSITION":157,
						"NORMAL":158,
						"TEXCOORD_0":159
					},
					"indices":3,
					"material":0
				}
			]
		},
		{
			"name":"Circle.004",
			"primitives":[
				{
					"attributes":{
						"POSITION":160,
						"NORMAL":161,
						"TEXCOORD_0":162
					},
					"indices":163,
					"material":0
				}
			]
		},
		{
			"name":"Circle.003",
			"primitives":[
				{
					"attributes":{
						"POSITION":164,
						"NORMAL":165,
						"TEXCOORD_0":166
					},
					"indices":167,
					"material":0
				}
			]
		},
		{
			"name":"Circle.002",
			"primitives":[
				{
					"attributes":{
						"POSITION":168,
						"NORMAL":169,
						"TEXCOORD_0":170
					},
					"indices":171,
					"material":0
				}
			]
		},
		{
			"name":"Circle.001",
			"primitives":[
				{
					"attributes":{
						"POSITION":172,
						"NORMAL":173,
						"TEXCOORD_0":174
					},
					"indices":175,
					"material":0
				}
			]
		},
		{
			"name":"Circle",
			"primitives":[
				{
					"attributes":{
						"POSITION":176,
						"NORMAL":177,
						"TEXCOORD_0":178
					},
					"indices":179,
					"material":0
				}
			]
		},
		{
			"name":"Circle.020",
			"primitives":[
				{
					"attributes":{
						"POSITION":180,
						"NORMAL":181,
						"TEXCOORD_0":182
					},
					"indices":183,
					"material":0
				}
			]
		},
		{
			"name":"Circle.019",
			"primitives":[
				{
					"attributes":{
						"POSITION":184,
						"NORMAL":185,
						"TEXCOORD_0":186
					},
					"indices":183,
					"material":0
				}
			]
		}
	],
	"textures":[
		{
			"sampler":0,
			"source":0
		}
	],
	"images":[
		{
			"mimeType":"image/png",
			"name":"texture_laubbaum",
			"uri":"texture_laubbaum.png"
		}
	],
	"accessors":[
		{
			"bufferView":0,
			"componentType":5126,
			"count":10,
			"max":[
				0.6972742676734924,
				-1.1920928955078125e-07,
				0.3231234550476074
			],
			"min":[
				-2.9802322387695312e-08,
				-0.2975785434246063,
				-0.2897235155105591
			],
			"type":"VEC3"
		},
		{
			"bufferView":1,
			"componentType":5126,
			"count":10,
			"type":"VEC3"
		},
		{
			"bufferView":2,
			"componentType":5126,
			"count":10,
			"type":"VEC2"
		},
		{
			"bufferView":3,
			"componentType":5123,
			"count":30,
			"type":"SCALAR"
		},
		{
			"bufferView":4,
			"componentType":5126,
			"count":10,
			"max":[
				0.616595447063446,
				-1.1920928955078125e-07,
				0.27864134311676025
			],
			"min":[
				-2.9802322387695312e-08,
				-0.32255473732948303,
				-0.26064690947532654
			],
			"type":"VEC3"
		},
		{
			"bufferView":5,
			"componentType":5126,
			"count":10,
			"type":"VEC3"
		},
		{
			"bufferView":6,
			"componentType":5126,
			"count":10,
			"type":"VEC2"
		},
		{
			"bufferView":7,
			"componentType":5126,
			"count":10,
			"max":[
				0.657900333404541,
				-1.1920928955078125e-07,
				0.28103944659233093
			],
			"min":[
				-2.9802322387695312e-08,
				-0.2715335786342621,
				-0.26201730966567993
			],
			"type":"VEC3"
		},
		{
			"bufferView":8,
			"componentType":5126,
			"count":10,
			"type":"VEC3"
		},
		{
			"bufferView":9,
			"componentType":5126,
			"count":10,
			"type":"VEC2"
		},
		{
			"bufferView":10,
			"componentType":5126,
			"count":10,
			"max":[
				0.6322882771492004,
				-1.1920928955078125e-07,
				0.22359351813793182
			],
			"min":[
				-2.9802322387695312e-08,
				-0.2347250133752823,
				-0.25772422552108765
			],
			"type":"VEC3"
		},
		{
			"bufferView":11,
			"componentType":5126,
			"count":10,
			"type":"VEC3"
		},
		{
			"bufferView":12,
			"componentType":5126,
			"count":10,
			"type":"VEC2"
		},
		{
			"bufferView":13,
			"componentType":5126,
			"count":10,
			"max":[
				0.657900333404541,
				-1.1920928955078125e-07,
				0.28103944659233093
			],
			"min":[
				-2.9802322387695312e-08,
				-0.2715335786342621,
				-0.26201730966567993
			],
			"type":"VEC3"
		},
		{
			"bufferView":14,
			"componentType":5126,
			"count":10,
			"type":"VEC3"
		},
		{
			"bufferView":15,
			"componentType":5126,
			"count":10,
			"type":"VEC2"
		},
		{
			"bufferView":16,
			"componentType":5126,
			"count":10,
			"max":[
				0.657900333404541,
				-1.1920928955078125e-07,
				0.2756401300430298
			],
			"min":[
				-2.9802322387695312e-08,
				-0.2715335786342621,
				-0.26201730966567993
			],
			"type":"VEC3"
		},
		{
			"bufferView":17,
			"componentType":5126,
			"count":10,
			"type":"VEC3"
		},
		{
			"bufferView":18,
			"componentType":5126,
			"count":10,
			"type":"VEC2"
		},
		{
			"bufferView":19,
			"componentType":5126,
			"count":10,
			"max":[
				0.616595447063446,
				-1.1920928955078125e-07,
				0.27864134311676025
			],
			"min":[
				-2.9802322387695312e-08,
				-0.32255473732948303,
				-0.26064690947532654
			],
			"type":"VEC3"
		},
		{
			"bufferView":20,
			"componentType":5126,
			"count":10,
			"type":"VEC3"
		},
		{
			"bufferView":21,
			"componentType":5126,
			"count":10,
			"type":"VEC2"
		},
		{
			"bufferView":22,
			"componentType":5126,
			"count":10,
			"max":[
				0.6540654301643372,
				0.061949364840984344,
				0.36967161297798157
			],
			"min":[
				-2.9802322387695312e-08,
				-0.18105357885360718,
				-0.3422403633594513
			],
			"type":"VEC3"
		},
		{
			"bufferView":23,
			"componentType":5126,
			"count":10,
			"type":"VEC3"
		},
		{
			"bufferView":24,
			"componentType":5126,
			"count":10,
			"type":"VEC2"
		},
		{
			"bufferView":25,
			"componentType":5126,
			"count":10,
			"max":[
				0.6730874180793762,
				-1.1920928955078125e-07,
				0.3231234550476074
			],
			"min":[
				-2.9802322387695312e-08,
				-0.25873467326164246,
				-0.3010977506637573
			],
			"type":"VEC3"
		},
		{
			"bufferView":26,
			"componentType":5126,
			"count":10,
			"type":"VEC3"
		},
		{
			"bufferView":27,
			"componentType":5126,
			"count":10,
			"type":"VEC2"
		},
		{
			"bufferView":28,
			"componentType":5126,
			"count":10,
			"max":[
				0.6540654301643372,
				0.08938451111316681,
				0.3019866943359375
			],
			"min":[
				-2.9802322387695312e-08,
				-0.18105357885360718,
				-0.2995535433292389
			],
			"type":"VEC3"
		},
		{
			"bufferView":29,
			"componentType":5126,
			"count":10,
			"type":"VEC3"
		},
		{
			"bufferView":30,
			"componentType":5126,
			"count":10,
			"type":"VEC2"
		},
		{
			"bufferView":31,
			"componentType":5126,
			"count":10,
			"max":[
				0.6756642460823059,
				-1.1920928955078125e-07,
				0.30104860663414
			],
			"min":[
				-2.9802322387695312e-08,
				-0.23158609867095947,
				-0.30631023645401
			],
			"type":"VEC3"
		},
		{
			"bufferView":32,
			"componentType":5126,
			"count":10,
			"type":"VEC3"
		},
		{
			"bufferView":33,
			"componentType":5126,
			"count":10,
			"type":"VEC2"
		},
		{
			"bufferView":34,
			"componentType":5126,
			"count":10,
			"max":[
				0.6649571657180786,
				-1.1920928955078125e-07,
				0.2718896269798279
			],
			"min":[
				-2.9802322387695312e-08,
				-0.28627386689186096,
				-0.27536678314208984
			],
			"type":"VEC3"
		},
		{
			"bufferView":35,
			"componentType":5126,
			"count":10,
			"type":"VEC3"
		},
		{
			"bufferView":36,
			"componentType":5126,
			"count":10,
			"type":"VEC2"
		},
		{
			"bufferView":37,
			"componentType":5126,
			"count":10,
			"max":[
				0.6540654301643372,
				0.07721053808927536,
				0.3019866943359375
			],
			"min":[
				-2.9802322387695312e-08,
				-0.18105357885360718,
				-0.2995535433292389
			],
			"type":"VEC3"
		},
		{
			"bufferView":38,
			"componentType":5126,
			"count":10,
			"type":"VEC3"
		},
		{
			"bufferView":39,
			"componentType":5126,
			"count":10,
			"type":"VEC2"
		},
		{
			"bufferView":40,
			"componentType":5126,
			"count":10,
			"max":[
				0.6322882771492004,
				-1.1920928955078125e-07,
				0.22359351813793182
			],
			"min":[
				-2.9802322387695312e-08,
				-0.2347250133752823,
				-0.25772422552108765
			],
			"type":"VEC3"
		},
		{
			"bufferView":41,
			"componentType":5126,
			"count":10,
			"type":"VEC3"
		},
		{
			"bufferView":42,
			"componentType":5126,
			"count":10,
			"type":"VEC2"
		},
		{
			"bufferView":43,
			"componentType":5126,
			"count":10,
			"max":[
				0.657900333404541,
				-1.1920928955078125e-07,
				0.28103944659233093
			],
			"min":[
				-2.9802322387695312e-08,
				-0.2715335786342621,
				-0.26201730966567993
			],
			"type":"VEC3"
		},
		{
			"bufferView":44,
			"componentType":5126,
			"count":10,
			"type":"VEC3"
		},
		{
			"bufferView":45,
			"componentType":5126,
			"count":10,
			"type":"VEC2"
		},
		{
			"bufferView":46,
			"componentType":5126,
			"count":10,
			"max":[
				0.616595447063446,
				-1.1920928955078125e-07,
				0.27864134311676025
			],
			"min":[
				-2.9802322387695312e-08,
				-0.32255473732948303,
				-0.26064690947532654
			],
			"type":"VEC3"
		},
		{
			"bufferView":47,
			"componentType":5126,
			"count":10,
			"type":"VEC3"
		},
		{
			"bufferView":48,
			"componentType":5126,
			"count":10,
			"type":"VEC2"
		},
		{
			"bufferView":49,
			"componentType":5126,
			"count":10,
			"max":[
				0.6649571657180786,
				-1.1920928955078125e-07,
				0.2718896269798279
			],
			"min":[
				-2.9802322387695312e-08,
				-0.28627386689186096,
				-0.27536678314208984
			],
			"type":"VEC3"
		},
		{
			"bufferView":50,
			"componentType":5126,
			"count":10,
			"type":"VEC3"
		},
		{
			"bufferView":51,
			"componentType":5126,
			"count":10,
			"type":"VEC2"
		},
		{
			"bufferView":52,
			"componentType":5126,
			"count":10,
			"max":[
				0.616595447063446,
				-1.1920928955078125e-07,
				0.25543758273124695
			],
			"min":[
				-2.9802322387695312e-08,
				-0.32255473732948303,
				-0.26064690947532654
			],
			"type":"VEC3"
		},
		{
			"bufferView":53,
			"componentType":5126,
			"count":10,
			"type":"VEC3"
		},
		{
			"bufferView":54,
			"componentType":5126,
			"count":10,
			"type":"VEC2"
		},
		{
			"bufferView":55,
			"componentType":5126,
			"count":10,
			"max":[
				0.6649571657180786,
				-1.1920928955078125e-07,
				0.28877586126327515
			],
			"min":[
				-2.9802322387695312e-08,
				-0.28627386689186096,
				-0.292385995388031
			],
			"type":"VEC3"
		},
		{
			"bufferView":56,
			"componentType":5126,
			"count":10,
			"type":"VEC3"
		},
		{
			"bufferView":57,
			"componentType":5126,
			"count":10,
			"type":"VEC2"
		},
		{
			"bufferView":58,
			"componentType":5126,
			"count":10,
			"max":[
				0.6324437260627747,
				-1.1920928955078125e-07,
				0.2965961992740631
			],
			"min":[
				-2.9802322387695312e-08,
				-0.274783730506897,
				-0.32655712962150574
			],
			"type":"VEC3"
		},
		{
			"bufferView":59,
			"componentType":5126,
			"count":10,
			"type":"VEC3"
		},
		{
			"bufferView":60,
			"componentType":5126,
			"count":10,
			"type":"VEC2"
		},
		{
			"bufferView":61,
			"componentType":5126,
			"count":10,
			"max":[
				0.616595447063446,
				-1.1920928955078125e-07,
				0.25543758273124695
			],
			"min":[
				-2.9802322387695312e-08,
				-0.32255473732948303,
				-0.26064690947532654
			],
			"type":"VEC3"
		},
		{
			"bufferView":62,
			"componentType":5126,
			"count":10,
			"type":"VEC3"
		},
		{
			"bufferView":63,
			"componentType":5126,
			"count":10,
			"type":"VEC2"
		},
		{
			"bufferView":64,
			"componentType":5126,
			"count":10,
			"max":[
				0.6540654301643372,
				0.08938451111316681,
				0.3019866943359375
			],
			"min":[
				-2.9802322387695312e-08,
				-0.18105357885360718,
				-0.2995535433292389
			],
			"type":"VEC3"
		},
		{
			"bufferView":65,
			"componentType":5126,
			"count":10,
			"type":"VEC3"
		},
		{
			"bufferView":66,
			"componentType":5126,
			"count":10,
			"type":"VEC2"
		},
		{
			"bufferView":67,
			"componentType":5126,
			"count":10,
			"max":[
				0.6649571657180786,
				-1.1920928955078125e-07,
				0.28877586126327515
			],
			"min":[
				-2.9802322387695312e-08,
				-0.28627386689186096,
				-0.292385995388031
			],
			"type":"VEC3"
		},
		{
			"bufferView":68,
			"componentType":5126,
			"count":10,
			"type":"VEC3"
		},
		{
			"bufferView":69,
			"componentType":5126,
			"count":10,
			"type":"VEC2"
		},
		{
			"bufferView":70,
			"componentType":5126,
			"count":10,
			"max":[
				0.6730874180793762,
				-1.1920928955078125e-07,
				0.3231234550476074
			],
			"min":[
				-2.9802322387695312e-08,
				-0.25873467326164246,
				-0.3010977506637573
			],
			"type":"VEC3"
		},
		{
			"bufferView":71,
			"componentType":5126,
			"count":10,
			"type":"VEC3"
		},
		{
			"bufferView":72,
			"componentType":5126,
			"count":10,
			"type":"VEC2"
		},
		{
			"bufferView":73,
			"componentType":5126,
			"count":10,
			"max":[
				0.6540654301643372,
				0.08938451111316681,
				0.3019866943359375
			],
			"min":[
				-2.9802322387695312e-08,
				-0.18105357885360718,
				-0.2995535433292389
			],
			"type":"VEC3"
		},
		{
			"bufferView":74,
			"componentType":5126,
			"count":10,
			"type":"VEC3"
		},
		{
			"bufferView":75,
			"componentType":5126,
			"count":10,
			"type":"VEC2"
		},
		{
			"bufferView":76,
			"componentType":5126,
			"count":10,
			"max":[
				0.6755023002624512,
				-1.1920928955078125e-07,
				0.30104860663414
			],
			"min":[
				-2.9802322387695312e-08,
				-0.2550339996814728,
				-0.2839709222316742
			],
			"type":"VEC3"
		},
		{
			"bufferView":77,
			"componentType":5126,
			"count":10,
			"type":"VEC3"
		},
		{
			"bufferView":78,
			"componentType":5126,
			"count":10,
			"type":"VEC2"
		},
		{
			"bufferView":79,
			"componentType":5126,
			"count":10,
			"max":[
				0.6730874180793762,
				-1.1920928955078125e-07,
				0.3231234550476074
			],
			"min":[
				-2.9802322387695312e-08,
				-0.25873467326164246,
				-0.3010977506637573
			],
			"type":"VEC3"
		},
		{
			"bufferView":80,
			"componentType":5126,
			"count":10,
			"type":"VEC3"
		},
		{
			"bufferView":81,
			"componentType":5126,
			"count":10,
			"type":"VEC2"
		},
		{
			"bufferView":82,
			"componentType":5126,
			"count":10,
			"max":[
				0.6322882771492004,
				-1.1920928955078125e-07,
				0.22359351813793182
			],
			"min":[
				-2.9802322387695312e-08,
				-0.2347250133752823,
				-0.25772422552108765
			],
			"type":"VEC3"
		},
		{
			"bufferView":83,
			"componentType":5126,
			"count":10,
			"type":"VEC3"
		},
		{
			"bufferView":84,
			"componentType":5126,
			"count":10,
			"type":"VEC2"
		},
		{
			"bufferView":85,
			"componentType":5126,
			"count":10,
			"max":[
				0.6322882771492004,
				-1.1920928955078125e-07,
				0.22359351813793182
			],
			"min":[
				-2.9802322387695312e-08,
				-0.23440498113632202,
				-0.26201730966567993
			],
			"type":"VEC3"
		},
		{
			"bufferView":86,
			"componentType":5126,
			"count":10,
			"type":"VEC3"
		},
		{
			"bufferView":87,
			"componentType":5126,
			"count":10,
			"type":"VEC2"
		},
		{
			"bufferView":88,
			"componentType":5126,
			"count":10,
			"max":[
				0.6755023002624512,
				-1.1920928955078125e-07,
				0.30104860663414
			],
			"min":[
				-2.9802322387695312e-08,
				-0.2550339996814728,
				-0.2839709222316742
			],
			"type":"VEC3"
		},
		{
			"bufferView":89,
			"componentType":5126,
			"count":10,
			"type":"VEC3"
		},
		{
			"bufferView":90,
			"componentType":5126,
			"count":10,
			"type":"VEC2"
		},
		{
			"bufferView":91,
			"componentType":5126,
			"count":10,
			"max":[
				0.6540654301643372,
				0.08938451111316681,
				0.3019866943359375
			],
			"min":[
				-2.9802322387695312e-08,
				-0.18105357885360718,
				-0.2995535433292389
			],
			"type":"VEC3"
		},
		{
			"bufferView":92,
			"componentType":5126,
			"count":10,
			"type":"VEC3"
		},
		{
			"bufferView":93,
			"componentType":5126,
			"count":10,
			"type":"VEC2"
		},
		{
			"bufferView":94,
			"componentType":5126,
			"count":10,
			"max":[
				0.6649571657180786,
				-1.1920928955078125e-07,
				0.28877586126327515
			],
			"min":[
				-2.9802322387695312e-08,
				-0.28627386689186096,
				-0.292385995388031
			],
			"type":"VEC3"
		},
		{
			"bufferView":95,
			"componentType":5126,
			"count":10,
			"type":"VEC3"
		},
		{
			"bufferView":96,
			"componentType":5126,
			"count":10,
			"type":"VEC2"
		},
		{
			"bufferView":97,
			"componentType":5126,
			"count":10,
			"max":[
				0.6649571657180786,
				-1.1920928955078125e-07,
				0.28877586126327515
			],
			"min":[
				-2.9802322387695312e-08,
				-0.28627386689186096,
				-0.292385995388031
			],
			"type":"VEC3"
		},
		{
			"bufferView":98,
			"componentType":5126,
			"count":10,
			"type":"VEC3"
		},
		{
			"bufferView":99,
			"componentType":5126,
			"count":10,
			"type":"VEC2"
		},
		{
			"bufferView":100,
			"componentType":5126,
			"count":10,
			"max":[
				0.6756642460823059,
				-1.1920928955078125e-07,
				0.30104860663414
			],
			"min":[
				-2.9802322387695312e-08,
				-0.23158609867095947,
				-0.30631023645401
			],
			"type":"VEC3"
		},
		{
			"bufferView":101,
			"componentType":5126,
			"count":10,
			"type":"VEC3"
		},
		{
			"bufferView":102,
			"componentType":5126,
			"count":10,
			"type":"VEC2"
		},
		{
			"bufferView":103,
			"componentType":5126,
			"count":10,
			"max":[
				0.6540654301643372,
				0.08938451111316681,
				0.3019866943359375
			],
			"min":[
				-2.9802322387695312e-08,
				-0.18105357885360718,
				-0.2995535433292389
			],
			"type":"VEC3"
		},
		{
			"bufferView":104,
			"componentType":5126,
			"count":10,
			"type":"VEC3"
		},
		{
			"bufferView":105,
			"componentType":5126,
			"count":10,
			"type":"VEC2"
		},
		{
			"bufferView":106,
			"componentType":5126,
			"count":10,
			"max":[
				0.6540654301643372,
				0.08938451111316681,
				0.3019866943359375
			],
			"min":[
				-2.9802322387695312e-08,
				-0.18105357885360718,
				-0.2995535433292389
			],
			"type":"VEC3"
		},
		{
			"bufferView":107,
			"componentType":5126,
			"count":10,
			"type":"VEC3"
		},
		{
			"bufferView":108,
			"componentType":5126,
			"count":10,
			"type":"VEC2"
		},
		{
			"bufferView":109,
			"componentType":5126,
			"count":10,
			"max":[
				0.6322882771492004,
				-1.1920928955078125e-07,
				0.22359351813793182
			],
			"min":[
				-2.9802322387695312e-08,
				-0.23440498113632202,
				-0.26201730966567993
			],
			"type":"VEC3"
		},
		{
			"bufferView":110,
			"componentType":5126,
			"count":10,
			"type":"VEC3"
		},
		{
			"bufferView":111,
			"componentType":5126,
			"count":10,
			"type":"VEC2"
		},
		{
			"bufferView":112,
			"componentType":5126,
			"count":10,
			"max":[
				0.6322882771492004,
				-1.1920928955078125e-07,
				0.22359351813793182
			],
			"min":[
				-2.9802322387695312e-08,
				-0.23440498113632202,
				-0.26201730966567993
			],
			"type":"VEC3"
		},
		{
			"bufferView":113,
			"componentType":5126,
			"count":10,
			"type":"VEC3"
		},
		{
			"bufferView":114,
			"componentType":5126,
			"count":10,
			"type":"VEC2"
		},
		{
			"bufferView":115,
			"componentType":5126,
			"count":10,
			"max":[
				0.6322882771492004,
				-1.1920928955078125e-07,
				0.22359351813793182
			],
			"min":[
				-2.9802322387695312e-08,
				-0.23440498113632202,
				-0.26201730966567993
			],
			"type":"VEC3"
		},
		{
			"bufferView":116,
			"componentType":5126,
			"count":10,
			"type":"VEC3"
		},
		{
			"bufferView":117,
			"componentType":5126,
			"count":10,
			"type":"VEC2"
		},
		{
			"bufferView":118,
			"componentType":5126,
			"count":10,
			"max":[
				0.6322882771492004,
				-1.1920928955078125e-07,
				0.22359351813793182
			],
			"min":[
				-2.9802322387695312e-08,
				-0.23440498113632202,
				-0.26201730966567993
			],
			"type":"VEC3"
		},
		{
			"bufferView":119,
			"componentType":5126,
			"count":10,
			"type":"VEC3"
		},
		{
			"bufferView":120,
			"componentType":5126,
			"count":10,
			"type":"VEC2"
		},
		{
			"bufferView":121,
			"componentType":5126,
			"count":10,
			"max":[
				0.6756642460823059,
				-1.1920928955078125e-07,
				0.2777489721775055
			],
			"min":[
				-2.9802322387695312e-08,
				-0.25864940881729126,
				-0.28403279185295105
			],
			"type":"VEC3"
		},
		{
			"bufferView":122,
			"componentType":5126,
			"count":10,
			"type":"VEC3"
		},
		{
			"bufferView":123,
			"componentType":5126,
			"count":10,
			"type":"VEC2"
		},
		{
			"bufferView":124,
			"componentType":5126,
			"count":10,
			"max":[
				0.6322882771492004,
				-1.1920928955078125e-07,
				0.22359351813793182
			],
			"min":[
				-2.9802322387695312e-08,
				-0.23440498113632202,
				-0.26201730966567993
			],
			"type":"VEC3"
		},
		{
			"bufferView":125,
			"componentType":5126,
			"count":10,
			"type":"VEC3"
		},
		{
			"bufferView":126,
			"componentType":5126,
			"count":10,
			"type":"VEC2"
		},
		{
			"bufferView":127,
			"componentType":5126,
			"count":10,
			"max":[
				0.657900333404541,
				-1.1920928955078125e-07,
				0.28103944659233093
			],
			"min":[
				-2.9802322387695312e-08,
				-0.2715335786342621,
				-0.26201730966567993
			],
			"type":"VEC3"
		},
		{
			"bufferView":128,
			"componentType":5126,
			"count":10,
			"type":"VEC3"
		},
		{
			"bufferView":129,
			"componentType":5126,
			"count":10,
			"type":"VEC2"
		},
		{
			"bufferView":130,
			"componentType":5126,
			"count":10,
			"max":[
				0.6884496212005615,
				-1.1920928955078125e-07,
				0.26144716143608093
			],
			"min":[
				-2.9802322387695312e-08,
				-0.2154996544122696,
				-0.26242169737815857
			],
			"type":"VEC3"
		},
		{
			"bufferView":131,
			"componentType":5126,
			"count":10,
			"type":"VEC3"
		},
		{
			"bufferView":132,
			"componentType":5126,
			"count":10,
			"type":"VEC2"
		},
		{
			"bufferView":133,
			"componentType":5126,
			"count":10,
			"max":[
				0.6756642460823059,
				-1.1920928955078125e-07,
				0.2596576511859894
			],
			"min":[
				-2.9802322387695312e-08,
				-0.2242358922958374,
				-0.2581753432750702
			],
			"type":"VEC3"
		},
		{
			"bufferView":134,
			"componentType":5126,
			"count":10,
			"type":"VEC3"
		},
		{
			"bufferView":135,
			"componentType":5126,
			"count":10,
			"type":"VEC2"
		},
		{
			"bufferView":136,
			"componentType":5126,
			"count":10,
			"max":[
				0.657900333404541,
				-1.1920928955078125e-07,
				0.28103944659233093
			],
			"min":[
				-2.9802322387695312e-08,
				-0.2715335786342621,
				-0.26201730966567993
			],
			"type":"VEC3"
		},
		{
			"bufferView":137,
			"componentType":5126,
			"count":10,
			"type":"VEC3"
		},
		{
			"bufferView":138,
			"componentType":5126,
			"count":10,
			"type":"VEC2"
		},
		{
			"bufferView":139,
			"componentType":5126,
			"count":10,
			"max":[
				0.616595447063446,
				-1.1920928955078125e-07,
				0.25543758273124695
			],
			"min":[
				-2.9802322387695312e-08,
				-0.32255473732948303,
				-0.26064690947532654
			],
			"type":"VEC3"
		},
		{
			"bufferView":140,
			"componentType":5126,
			"count":10,
			"type":"VEC3"
		},
		{
			"bufferView":141,
			"componentType":5126,
			"count":10,
			"type":"VEC2"
		},
		{
			"bufferView":142,
			"componentType":5126,
			"count":10,
			"max":[
				0.6756642460823059,
				-1.1920928955078125e-07,
				0.30104860663414
			],
			"min":[
				-2.9802322387695312e-08,
				-0.23158609867095947,
				-0.30631023645401
			],
			"type":"VEC3"
		},
		{
			"bufferView":143,
			"componentType":5126,
			"count":10,
			"type":"VEC3"
		},
		{
			"bufferView":144,
			"componentType":5126,
			"count":10,
			"type":"VEC2"
		},
		{
			"bufferView":145,
			"componentType":5126,
			"count":10,
			"max":[
				0.6755023002624512,
				-1.1920928955078125e-07,
				0.29612141847610474
			],
			"min":[
				-2.9802322387695312e-08,
				-0.2550339996814728,
				-0.3180162012577057
			],
			"type":"VEC3"
		},
		{
			"bufferView":146,
			"componentType":5126,
			"count":10,
			"type":"VEC3"
		},
		{
			"bufferView":147,
			"componentType":5126,
			"count":10,
			"type":"VEC2"
		},
		{
			"bufferView":148,
			"componentType":5126,
			"count":10,
			"max":[
				0.6756642460823059,
				-1.1920928955078125e-07,
				0.30104860663414
			],
			"min":[
				-2.9802322387695312e-08,
				-0.23158609867095947,
				-0.30631023645401
			],
			"type":"VEC3"
		},
		{
			"bufferView":149,
			"componentType":5126,
			"count":10,
			"type":"VEC3"
		},
		{
			"bufferView":150,
			"componentType":5126,
			"count":10,
			"type":"VEC2"
		},
		{
			"bufferView":151,
			"componentType":5126,
			"count":10,
			"max":[
				0.6756642460823059,
				-1.1920928955078125e-07,
				0.30104860663414
			],
			"min":[
				-2.9802322387695312e-08,
				-0.23158609867095947,
				-0.30631023645401
			],
			"type":"VEC3"
		},
		{
			"bufferView":152,
			"componentType":5126,
			"count":10,
			"type":"VEC3"
		},
		{
			"bufferView":153,
			"componentType":5126,
			"count":10,
			"type":"VEC2"
		},
		{
			"bufferView":154,
			"componentType":5126,
			"count":10,
			"max":[
				0.657900333404541,
				-1.1920928955078125e-07,
				0.28103944659233093
			],
			"min":[
				-2.9802322387695312e-08,
				-0.2715335786342621,
				-0.26201730966567993
			],
			"type":"VEC3"
		},
		{
			"bufferView":155,
			"componentType":5126,
			"count":10,
			"type":"VEC3"
		},
		{
			"bufferView":156,
			"componentType":5126,
			"count":10,
			"type":"VEC2"
		},
		{
			"bufferView":157,
			"componentType":5126,
			"count":10,
			"max":[
				0.6649571657180786,
				-1.1920928955078125e-07,
				0.28877586126327515
			],
			"min":[
				-2.9802322387695312e-08,
				-0.28627386689186096,
				-0.292385995388031
			],
			"type":"VEC3"
		},
		{
			"bufferView":158,
			"componentType":5126,
			"count":10,
			"type":"VEC3"
		},
		{
			"bufferView":159,
			"componentType":5126,
			"count":10,
			"type":"VEC2"
		},
		{
			"bufferView":160,
			"componentType":5126,
			"count":32,
			"max":[
				0.6568115949630737,
				2.0189123153686523,
				0.28452205657958984
			],
			"min":[
				-0.7479877471923828,
				-1.9001920223236084,
				-0.5266282558441162
			],
			"type":"VEC3"
		},
		{
			"bufferView":161,
			"componentType":5126,
			"count":32,
			"type":"VEC3"
		},
		{
			"bufferView":162,
			"componentType":5126,
			"count":32,
			"type":"VEC2"
		},
		{
			"bufferView":163,
			"componentType":5123,
			"count":120,
			"type":"SCALAR"
		},
		{
			"bufferView":164,
			"componentType":5126,
			"count":32,
			"max":[
				0.6568117141723633,
				2.0189132690429688,
				0.28452229499816895
			],
			"min":[
				-0.7479877471923828,
				-1.900191307067871,
				-0.5266280174255371
			],
			"type":"VEC3"
		},
		{
			"bufferView":165,
			"componentType":5126,
			"count":32,
			"type":"VEC3"
		},
		{
			"bufferView":166,
			"componentType":5126,
			"count":32,
			"type":"VEC2"
		},
		{
			"bufferView":167,
			"componentType":5123,
			"count":120,
			"type":"SCALAR"
		},
		{
			"bufferView":168,
			"componentType":5126,
			"count":32,
			"max":[
				0.6568115949630737,
				2.0189123153686523,
				0.28452205657958984
			],
			"min":[
				-0.7479877471923828,
				-1.9001920223236084,
				-0.5266282558441162
			],
			"type":"VEC3"
		},
		{
			"bufferView":169,
			"componentType":5126,
			"count":32,
			"type":"VEC3"
		},
		{
			"bufferView":170,
			"componentType":5126,
			"count":32,
			"type":"VEC2"
		},
		{
			"bufferView":171,
			"componentType":5123,
			"count":120,
			"type":"SCALAR"
		},
		{
			"bufferView":172,
			"componentType":5126,
			"count":39,
			"max":[
				0.12990382313728333,
				5.217101097106934,
				0.6637078523635864
			],
			"min":[
				-1.5229867696762085,
				0,
				-0.15000000596046448
			],
			"type":"VEC3"
		},
		{
			"bufferView":173,
			"componentType":5126,
			"count":39,
			"type":"VEC3"
		},
		{
			"bufferView":174,
			"componentType":5126,
			"count":39,
			"type":"VEC2"
		},
		{
			"bufferView":175,
			"componentType":5123,
			"count":156,
			"type":"SCALAR"
		},
		{
			"bufferView":176,
			"componentType":5126,
			"count":105,
			"max":[
				0.3201749920845032,
				9.196983337402344,
				0.3201749920845032
			],
			"min":[
				-0.657046914100647,
				-0.10000000149011612,
				-1.6075800657272339
			],
			"type":"VEC3"
		},
		{
			"bufferView":177,
			"componentType":5126,
			"count":105,
			"type":"VEC3"
		},
		{
			"bufferView":178,
			"componentType":5126,
			"count":105,
			"type":"VEC2"
		},
		{
			"bufferView":179,
			"componentType":5123,
			"count":498,
			"type":"SCALAR"
		},
		{
			"bufferView":180,
			"componentType":5126,
			"count":770,
			"max":[
				3.770376205444336,
				10.2803955078125,
				2.7991130352020264
			],
			"min":[
				-2.7556872367858887,
				-0.10000000149011612,
				-3.1751534938812256
			],
			"type":"VEC3"
		},
		{
			"bufferView":181,
			"componentType":5126,
			"count":770,
			"type":"VEC3"
		},
		{
			"bufferView":182,
			"componentType":5126,
			"count":770,
			"type":"VEC2"
		},
		{
			"bufferView":183,
			"componentType":5123,
			"count":2604,
			"type":"SCALAR"
		},
		{
			"bufferView":184,
			"componentType":5126,
			"count":770,
			"max":[
				3.770376205444336,
				10.2803955078125,
				2.7991130352020264
			],
			"min":[
				-2.7556872367858887,
				-0.10000000149011612,
				-3.1751534938812256
			],
			"type":"VEC3"
		},
		{
			"bufferView":185,
			"componentType":5126,
			"count":770,
			"type":"VEC3"
		},
		{
			"bufferView":186,
			"componentType":5126,
			"count":770,
			"type":"VEC2"
		}
	],
	"bufferViews":[
		{
			"buffer":0,
			"byteLength":120,
			"byteOffset":0,
			"target":34962
		},
		{
			"buffer":0,
			"byteLength":120,
			"byteOffset":120,
			"target":34962
		},
		{
			"buffer":0,
			"byteLength":80,
			"byteOffset":240,
			"target":34962
		},
		{
			"buffer":0,
			"byteLength":60,
			"byteOffset":320,
			"target":34963
		},
		{
			"buffer":0,
			"byteLength":120,
			"byteOffset":380,
			"target":34962
		},
		{
			"buffer":0,
			"byteLength":120,
			"byteOffset":500,
			"target":34962
		},
		{
			"buffer":0,
			"byteLength":80,
			"byteOffset":620,
			"target":34962
		},
		{
			"buffer":0,
			"byteLength":120,
			"byteOffset":700,
			"target":34962
		},
		{
			"buffer":0,
			"byteLength":120,
			"byteOffset":820,
			"target":34962
		},
		{
			"buffer":0,
			"byteLength":80,
			"byteOffset":940,
			"target":34962
		},
		{
			"buffer":0,
			"byteLength":120,
			"byteOffset":1020,
			"target":34962
		},
		{
			"buffer":0,
			"byteLength":120,
			"byteOffset":1140,
			"target":34962
		},
		{
			"buffer":0,
			"byteLength":80,
			"byteOffset":1260,
			"target":34962
		},
		{
			"buffer":0,
			"byteLength":120,
			"byteOffset":1340,
			"target":34962
		},
		{
			"buffer":0,
			"byteLength":120,
			"byteOffset":1460,
			"target":34962
		},
		{
			"buffer":0,
			"byteLength":80,
			"byteOffset":1580,
			"target":34962
		},
		{
			"buffer":0,
			"byteLength":120,
			"byteOffset":1660,
			"target":34962
		},
		{
			"buffer":0,
			"byteLength":120,
			"byteOffset":1780,
			"target":34962
		},
		{
			"buffer":0,
			"byteLength":80,
			"byteOffset":1900,
			"target":34962
		},
		{
			"buffer":0,
			"byteLength":120,
			"byteOffset":1980,
			"target":34962
		},
		{
			"buffer":0,
			"byteLength":120,
			"byteOffset":2100,
			"target":34962
		},
		{
			"buffer":0,
			"byteLength":80,
			"byteOffset":2220,
			"target":34962
		},
		{
			"buffer":0,
			"byteLength":120,
			"byteOffset":2300,
			"target":34962
		},
		{
			"buffer":0,
			"byteLength":120,
			"byteOffset":2420,
			"target":34962
		},
		{
			"buffer":0,
			"byteLength":80,
			"byteOffset":2540,
			"target":34962
		},
		{
			"buffer":0,
			"byteLength":120,
			"byteOffset":2620,
			"target":34962
		},
		{
			"buffer":0,
			"byteLength":120,
			"byteOffset":2740,
			"target":34962
		},
		{
			"buffer":0,
			"byteLength":80,
			"byteOffset":2860,
			"target":34962
		},
		{
			"buffer":0,
			"byteLength":120,
			"byteOffset":2940,
			"target":34962
		},
		{
			"buffer":0,
			"byteLength":120,
			"byteOffset":3060,
			"target":34962
		},
		{
			"buffer":0,
			"byteLength":80,
			"byteOffset":3180,
			"target":34962
		},
		{
			"buffer":0,
			"byteLength":120,
			"byteOffset":3260,
			"target":34962
		},
		{
			"buffer":0,
			"byteLength":120,
			"byteOffset":3380,
			"target":34962
		},
		{
			"buffer":0,
			"byteLength":80,
			"byteOffset":3500,
			"target":34962
		},
		{
			"buffer":0,
			"byteLength":120,
			"byteOffset":3580,
			"target":34962
		},
		{
			"buffer":0,
			"byteLength":120,
			"byteOffset":3700,
			"target":34962
		},
		{
			"buffer":0,
			"byteLength":80,
			"byteOffset":3820,
			"target":34962
		},
		{
			"buffer":0,
			"byteLength":120,
			"byteOffset":3900,
			"target":34962
		},
		{
			"buffer":0,
			"byteLength":120,
			"byteOffset":4020,
			"target":34962
		},
		{
			"buffer":0,
			"byteLength":80,
			"byteOffset":4140,
			"target":34962
		},
		{
			"buffer":0,
			"byteLength":120,
			"byteOffset":4220,
			"target":34962
		},
		{
			"buffer":0,
			"byteLength":120,
			"byteOffset":4340,
			"target":34962
		},
		{
			"buffer":0,
			"byteLength":80,
			"byteOffset":4460,
			"target":34962
		},
		{
			"buffer":0,
			"byteLength":120,
			"byteOffset":4540,
			"target":34962
		},
		{
			"buffer":0,
			"byteLength":120,
			"byteOffset":4660,
			"target":34962
		},
		{
			"buffer":0,
			"byteLength":80,
			"byteOffset":4780,
			"target":34962
		},
		{
			"buffer":0,
			"byteLength":120,
			"byteOffset":4860,
			"target":34962
		},
		{
			"buffer":0,
			"byteLength":120,
			"byteOffset":4980,
			"target":34962
		},
		{
			"buffer":0,
			"byteLength":80,
			"byteOffset":5100,
			"target":34962
		},
		{
			"buffer":0,
			"byteLength":120,
			"byteOffset":5180,
			"target":34962
		},
		{
			"buffer":0,
			"byteLength":120,
			"byteOffset":5300,
			"target":34962
		},
		{
			"buffer":0,
			"byteLength":80,
			"byteOffset":5420,
			"target":34962
		},
		{
			"buffer":0,
			"byteLength":120,
			"byteOffset":5500,
			"target":34962
		},
		{
			"buffer":0,
			"byteLength":120,
			"byteOffset":5620,
			"target":34962
		},
		{
			"buffer":0,
			"byteLength":80,
			"byteOffset":5740,
			"target":34962
		},
		{
			"buffer":0,
			"byteLength":120,
			"byteOffset":5820,
			"target":34962
		},
		{
			"buffer":0,
			"byteLength":120,
			"byteOffset":5940,
			"target":34962
		},
		{
			"buffer":0,
			"byteLength":80,
			"byteOffset":6060,
			"target":34962
		},
		{
			"buffer":0,
			"byteLength":120,
			"byteOffset":6140,
			"target":34962
		},
		{
			"buffer":0,
			"byteLength":120,
			"byteOffset":6260,
			"target":34962
		},
		{
			"buffer":0,
			"byteLength":80,
			"byteOffset":6380,
			"target":34962
		},
		{
			"buffer":0,
			"byteLength":120,
			"byteOffset":6460,
			"target":34962
		},
		{
			"buffer":0,
			"byteLength":120,
			"byteOffset":6580,
			"target":34962
		},
		{
			"buffer":0,
			"byteLength":80,
			"byteOffset":6700,
			"target":34962
		},
		{
			"buffer":0,
			"byteLength":120,
			"byteOffset":6780,
			"target":34962
		},
		{
			"buffer":0,
			"byteLength":120,
			"byteOffset":6900,
			"target":34962
		},
		{
			"buffer":0,
			"byteLength":80,
			"byteOffset":7020,
			"target":34962
		},
		{
			"buffer":0,
			"byteLength":120,
			"byteOffset":7100,
			"target":34962
		},
		{
			"buffer":0,
			"byteLength":120,
			"byteOffset":7220,
			"target":34962
		},
		{
			"buffer":0,
			"byteLength":80,
			"byteOffset":7340,
			"target":34962
		},
		{
			"buffer":0,
			"byteLength":120,
			"byteOffset":7420,
			"target":34962
		},
		{
			"buffer":0,
			"byteLength":120,
			"byteOffset":7540,
			"target":34962
		},
		{
			"buffer":0,
			"byteLength":80,
			"byteOffset":7660,
			"target":34962
		},
		{
			"buffer":0,
			"byteLength":120,
			"byteOffset":7740,
			"target":34962
		},
		{
			"buffer":0,
			"byteLength":120,
			"byteOffset":7860,
			"target":34962
		},
		{
			"buffer":0,
			"byteLength":80,
			"byteOffset":7980,
			"target":34962
		},
		{
			"buffer":0,
			"byteLength":120,
			"byteOffset":8060,
			"target":34962
		},
		{
			"buffer":0,
			"byteLength":120,
			"byteOffset":8180,
			"target":34962
		},
		{
			"buffer":0,
			"byteLength":80,
			"byteOffset":8300,
			"target":34962
		},
		{
			"buffer":0,
			"byteLength":120,
			"byteOffset":8380,
			"target":34962
		},
		{
			"buffer":0,
			"byteLength":120,
			"byteOffset":8500,
			"target":34962
		},
		{
			"buffer":0,
			"byteLength":80,
			"byteOffset":8620,
			"target":34962
		},
		{
			"buffer":0,
			"byteLength":120,
			"byteOffset":8700,
			"target":34962
		},
		{
			"buffer":0,
			"byteLength":120,
			"byteOffset":8820,
			"target":34962
		},
		{
			"buffer":0,
			"byteLength":80,
			"byteOffset":8940,
			"target":34962
		},
		{
			"buffer":0,
			"byteLength":120,
			"byteOffset":9020,
			"target":34962
		},
		{
			"buffer":0,
			"byteLength":120,
			"byteOffset":9140,
			"target":34962
		},
		{
			"buffer":0,
			"byteLength":80,
			"byteOffset":9260,
			"target":34962
		},
		{
			"buffer":0,
			"byteLength":120,
			"byteOffset":9340,
			"target":34962
		},
		{
			"buffer":0,
			"byteLength":120,
			"byteOffset":9460,
			"target":34962
		},
		{
			"buffer":0,
			"byteLength":80,
			"byteOffset":9580,
			"target":34962
		},
		{
			"buffer":0,
			"byteLength":120,
			"byteOffset":9660,
			"target":34962
		},
		{
			"buffer":0,
			"byteLength":120,
			"byteOffset":9780,
			"target":34962
		},
		{
			"buffer":0,
			"byteLength":80,
			"byteOffset":9900,
			"target":34962
		},
		{
			"buffer":0,
			"byteLength":120,
			"byteOffset":9980,
			"target":34962
		},
		{
			"buffer":0,
			"byteLength":120,
			"byteOffset":10100,
			"target":34962
		},
		{
			"buffer":0,
			"byteLength":80,
			"byteOffset":10220,
			"target":34962
		},
		{
			"buffer":0,
			"byteLength":120,
			"byteOffset":10300,
			"target":34962
		},
		{
			"buffer":0,
			"byteLength":120,
			"byteOffset":10420,
			"target":34962
		},
		{
			"buffer":0,
			"byteLength":80,
			"byteOffset":10540,
			"target":34962
		},
		{
			"buffer":0,
			"byteLength":120,
			"byteOffset":10620,
			"target":34962
		},
		{
			"buffer":0,
			"byteLength":120,
			"byteOffset":10740,
			"target":34962
		},
		{
			"buffer":0,
			"byteLength":80,
			"byteOffset":10860,
			"target":34962
		},
		{
			"buffer":0,
			"byteLength":120,
			"byteOffset":10940,
			"target":34962
		},
		{
			"buffer":0,
			"byteLength":120,
			"byteOffset":11060,
			"target":34962
		},
		{
			"buffer":0,
			"byteLength":80,
			"byteOffset":11180,
			"target":34962
		},
		{
			"buffer":0,
			"byteLength":120,
			"byteOffset":11260,
			"target":34962
		},
		{
			"buffer":0,
			"byteLength":120,
			"byteOffset":11380,
			"target":34962
		},
		{
			"buffer":0,
			"byteLength":80,
			"byteOffset":11500,
			"target":34962
		},
		{
			"buffer":0,
			"byteLength":120,
			"byteOffset":11580,
			"target":34962
		},
		{
			"buffer":0,
			"byteLength":120,
			"byteOffset":11700,
			"target":34962
		},
		{
			"buffer":0,
			"byteLength":80,
			"byteOffset":11820,
			"target":34962
		},
		{
			"buffer":0,
			"byteLength":120,
			"byteOffset":11900,
			"target":34962
		},
		{
			"buffer":0,
			"byteLength":120,
			"byteOffset":12020,
			"target":34962
		},
		{
			"buffer":0,
			"byteLength":80,
			"byteOffset":12140,
			"target":34962
		},
		{
			"buffer":0,
			"byteLength":120,
			"byteOffset":12220,
			"target":34962
		},
		{
			"buffer":0,
			"byteLength":120,
			"byteOffset":12340,
			"target":34962
		},
		{
			"buffer":0,
			"byteLength":80,
			"byteOffset":12460,
			"target":34962
		},
		{
			"buffer":0,
			"byteLength":120,
			"byteOffset":12540,
			"target":34962
		},
		{
			"buffer":0,
			"byteLength":120,
			"byteOffset":12660,
			"target":34962
		},
		{
			"buffer":0,
			"byteLength":80,
			"byteOffset":12780,
			"target":34962
		},
		{
			"buffer":0,
			"byteLength":120,
			"byteOffset":12860,
			"target":34962
		},
		{
			"buffer":0,
			"byteLength":120,
			"byteOffset":12980,
			"target":34962
		},
		{
			"buffer":0,
			"byteLength":80,
			"byteOffset":13100,
			"target":34962
		},
		{
			"buffer":0,
			"byteLength":120,
			"byteOffset":13180,
			"target":34962
		},
		{
			"buffer":0,
			"byteLength":120,
			"byteOffset":13300,
			"target":34962
		},
		{
			"buffer":0,
			"byteLength":80,
			"byteOffset":13420,
			"target":34962
		},
		{
			"buffer":0,
			"byteLength":120,
			"byteOffset":13500,
			"target":34962
		},
		{
			"buffer":0,
			"byteLength":120,
			"byteOffset":13620,
			"target":34962
		},
		{
			"buffer":0,
			"byteLength":80,
			"byteOffset":13740,
			"target":34962
		},
		{
			"buffer":0,
			"byteLength":120,
			"byteOffset":13820,
			"target":34962
		},
		{
			"buffer":0,
			"byteLength":120,
			"byteOffset":13940,
			"target":34962
		},
		{
			"buffer":0,
			"byteLength":80,
			"byteOffset":14060,
			"target":34962
		},
		{
			"buffer":0,
			"byteLength":120,
			"byteOffset":14140,
			"target":34962
		},
		{
			"buffer":0,
			"byteLength":120,
			"byteOffset":14260,
			"target":34962
		},
		{
			"buffer":0,
			"byteLength":80,
			"byteOffset":14380,
			"target":34962
		},
		{
			"buffer":0,
			"byteLength":120,
			"byteOffset":14460,
			"target":34962
		},
		{
			"buffer":0,
			"byteLength":120,
			"byteOffset":14580,
			"target":34962
		},
		{
			"buffer":0,
			"byteLength":80,
			"byteOffset":14700,
			"target":34962
		},
		{
			"buffer":0,
			"byteLength":120,
			"byteOffset":14780,
			"target":34962
		},
		{
			"buffer":0,
			"byteLength":120,
			"byteOffset":14900,
			"target":34962
		},
		{
			"buffer":0,
			"byteLength":80,
			"byteOffset":15020,
			"target":34962
		},
		{
			"buffer":0,
			"byteLength":120,
			"byteOffset":15100,
			"target":34962
		},
		{
			"buffer":0,
			"byteLength":120,
			"byteOffset":15220,
			"target":34962
		},
		{
			"buffer":0,
			"byteLength":80,
			"byteOffset":15340,
			"target":34962
		},
		{
			"buffer":0,
			"byteLength":120,
			"byteOffset":15420,
			"target":34962
		},
		{
			"buffer":0,
			"byteLength":120,
			"byteOffset":15540,
			"target":34962
		},
		{
			"buffer":0,
			"byteLength":80,
			"byteOffset":15660,
			"target":34962
		},
		{
			"buffer":0,
			"byteLength":120,
			"byteOffset":15740,
			"target":34962
		},
		{
			"buffer":0,
			"byteLength":120,
			"byteOffset":15860,
			"target":34962
		},
		{
			"buffer":0,
			"byteLength":80,
			"byteOffset":15980,
			"target":34962
		},
		{
			"buffer":0,
			"byteLength":120,
			"byteOffset":16060,
			"target":34962
		},
		{
			"buffer":0,
			"byteLength":120,
			"byteOffset":16180,
			"target":34962
		},
		{
			"buffer":0,
			"byteLength":80,
			"byteOffset":16300,
			"target":34962
		},
		{
			"buffer":0,
			"byteLength":120,
			"byteOffset":16380,
			"target":34962
		},
		{
			"buffer":0,
			"byteLength":120,
			"byteOffset":16500,
			"target":34962
		},
		{
			"buffer":0,
			"byteLength":80,
			"byteOffset":16620,
			"target":34962
		},
		{
			"buffer":0,
			"byteLength":120,
			"byteOffset":16700,
			"target":34962
		},
		{
			"buffer":0,
			"byteLength":120,
			"byteOffset":16820,
			"target":34962
		},
		{
			"buffer":0,
			"byteLength":80,
			"byteOffset":16940,
			"target":34962
		},
		{
			"buffer":0,
			"byteLength":384,
			"byteOffset":17020,
			"target":34962
		},
		{
			"buffer":0,
			"byteLength":384,
			"byteOffset":17404,
			"target":34962
		},
		{
			"buffer":0,
			"byteLength":256,
			"byteOffset":17788,
			"target":34962
		},
		{
			"buffer":0,
			"byteLength":240,
			"byteOffset":18044,
			"target":34963
		},
		{
			"buffer":0,
			"byteLength":384,
			"byteOffset":18284,
			"target":34962
		},
		{
			"buffer":0,
			"byteLength":384,
			"byteOffset":18668,
			"target":34962
		},
		{
			"buffer":0,
			"byteLength":256,
			"byteOffset":19052,
			"target":34962
		},
		{
			"buffer":0,
			"byteLength":240,
			"byteOffset":19308,
			"target":34963
		},
		{
			"buffer":0,
			"byteLength":384,
			"byteOffset":19548,
			"target":34962
		},
		{
			"buffer":0,
			"byteLength":384,
			"byteOffset":19932,
			"target":34962
		},
		{
			"buffer":0,
			"byteLength":256,
			"byteOffset":20316,
			"target":34962
		},
		{
			"buffer":0,
			"byteLength":240,
			"byteOffset":20572,
			"target":34963
		},
		{
			"buffer":0,
			"byteLength":468,
			"byteOffset":20812,
			"target":34962
		},
		{
			"buffer":0,
			"byteLength":468,
			"byteOffset":21280,
			"target":34962
		},
		{
			"buffer":0,
			"byteLength":312,
			"byteOffset":21748,
			"target":34962
		},
		{
			"buffer":0,
			"byteLength":312,
			"byteOffset":22060,
			"target":34963
		},
		{
			"buffer":0,
			"byteLength":1260,
			"byteOffset":22372,
			"target":34962
		},
		{
			"buffer":0,
			"byteLength":1260,
			"byteOffset":23632,
			"target":34962
		},
		{
			"buffer":0,
			"byteLength":840,
			"byteOffset":24892,
			"target":34962
		},
		{
			"buffer":0,
			"byteLength":996,
			"byteOffset":25732,
			"target":34963
		},
		{
			"buffer":0,
			"byteLength":9240,
			"byteOffset":26728,
			"target":34962
		},
		{
			"buffer":0,
			"byteLength":9240,
			"byteOffset":35968,
			"target":34962
		},
		{
			"buffer":0,
			"byteLength":6160,
			"byteOffset":45208,
			"target":34962
		},
		{
			"buffer":0,
			"byteLength":5208,
			"byteOffset":51368,
			"target":34963
		},
		{
			"buffer":0,
			"byteLength":9240,
			"byteOffset":56576,
			"target":34962
		},
		{
			"buffer":0,
			"byteLength":9240,
			"byteOffset":65816,
			"target":34962
		},
		{
			"buffer":0,
			"byteLength":6160,
			"byteOffset":75056,
			"target":34962
		}
	],
	"samplers":[
		{
			"magFilter":9729,
			"minFilter":9987
		}
	],
	"buffers":[
		{
			"byteLength":81216,
			"uri":"laubbaum.bin"
		}
	]
}
